<?xml version="1.0" standalone="no"?>
<!DOCTYPE svg PUBLIC "-//W3C//DTD SVG 20010904//EN"
 "http://www.w3.org/TR/2001/REC-SVG-20010904/DTD/svg10.dtd">
<svg version="1.0" xmlns="http://www.w3.org/2000/svg"
 width="626.000000pt" height="626.000000pt" viewBox="0 0 626.000000 626.000000"
 preserveAspectRatio="xMidYMid meet">

<g transform="translate(0.000000,626.000000) scale(0.100000,-0.100000)"
fill="#000000" stroke="none">
<path d="M4410 4613 c-215 -38 -459 -137 -639 -257 -193 -130 -383 -322 -507
-515 -21 -34 -41 -61 -44 -61 -3 0 -99 84 -214 188 -115 103 -226 202 -247
220 l-38 33 24 -43 c55 -99 57 -260 6 -461 -71 -280 -250 -621 -477 -907 -97
-121 -323 -345 -429 -422 -173 -128 -309 -188 -450 -197 l-90 -6 50 -18 c28
-10 86 -21 130 -24 213 -15 464 113 754 382 125 116 -5 -50 -145 -185 -146
-141 -297 -236 -456 -286 -32 -10 -58 -21 -58 -24 0 -4 24 -20 53 -35 28 -16
112 -64 186 -108 184 -108 336 -183 445 -219 118 -39 285 -50 386 -24 253 65
429 227 845 776 244 322 329 425 470 566 141 142 251 226 378 289 206 101 383
112 634 39 22 -6 22 -6 -8 84 -33 99 -36 102 -121 102 -53 0 -46 -13 -68 130
-15 96 -16 92 35 88 25 -2 45 -1 45 2 0 3 -39 126 -87 274 l-88 269 -85 -7
-85 -6 -31 102 c-21 70 -27 105 -20 110 6 4 41 10 79 14 76 7 72 -3 37 99 -16
46 -19 50 -51 52 -19 1 -72 -5 -119 -14z m-205 -257 c8 -18 26 -64 40 -101
l25 -67 -43 -16 c-23 -9 -86 -38 -140 -65 -54 -27 -100 -47 -101 -45 -2 1 -18
43 -36 91 -29 78 -31 90 -18 103 11 12 244 133 256 134 2 0 9 -15 17 -34z
m-458 -361 l42 -79 -47 -40 c-26 -22 -82 -74 -124 -115 -43 -41 -79 -73 -81
-70 -2 2 -27 34 -55 71 l-52 66 127 126 c69 70 131 125 137 123 6 -2 30 -39
53 -82z m772 -342 c6 -21 17 -60 26 -88 21 -71 19 -84 -12 -91 -30 -6 -181
-52 -198 -60 -6 -2 -25 33 -42 78 -17 46 -34 90 -38 99 -5 13 9 22 67 42 70
25 165 55 180 56 4 1 12 -16 17 -36z m-1179 -81 l52 -64 -24 -26 c-14 -15 -55
-67 -93 -115 -37 -48 -71 -87 -75 -85 -10 4 -100 115 -100 123 0 11 174 235
181 233 3 -2 30 -32 59 -66z m728 -188 c24 -48 42 -87 40 -88 -18 -12 -105
-81 -151 -120 -33 -28 -61 -46 -65 -40 -5 5 -30 35 -57 67 l-48 58 34 36 c38
40 191 173 199 173 3 0 25 -39 48 -86z m-1054 -245 c57 -70 62 -49 -47 -203
l-69 -98 -59 58 c-34 33 -55 62 -51 69 31 51 165 235 170 235 4 0 29 -28 56
-61z m663 -106 c21 -27 44 -55 51 -64 10 -14 3 -27 -44 -85 -31 -38 -62 -75
-68 -82 -11 -11 -23 -2 -65 52 l-52 65 62 81 c34 44 66 80 70 80 4 0 25 -21
46 -47z m-927 -394 c0 -10 -164 -220 -190 -244 -21 -19 -22 -18 -77 37 l-57
57 60 73 c33 40 82 102 109 137 l49 65 53 -59 c29 -32 53 -62 53 -66z m660 23
c25 -31 46 -59 48 -64 2 -4 -25 -44 -60 -90 -35 -45 -68 -88 -73 -96 -8 -10
-22 1 -63 52 l-52 66 71 95 c39 52 74 95 78 94 3 0 26 -26 51 -57z m-292 -384
c40 -52 43 -58 30 -77 -19 -26 -130 -143 -132 -139 -2 2 -23 29 -49 61 l-47
59 67 78 c38 43 72 77 77 76 5 -1 29 -27 54 -58z m-792 -130 c-131 -121 -218
-138 -291 -58 -18 20 -18 22 -2 31 29 17 160 125 197 163 l34 36 60 -59 59
-59 -57 -54z m480 -192 l48 -59 -40 -34 c-103 -90 -140 -94 -232 -26 l-33 25
83 62 c46 35 89 70 97 80 8 9 17 15 21 14 4 -2 29 -30 56 -62z"/>
<path d="M2320 4099 c-62 -12 -191 -78 -275 -141 -89 -67 -250 -228 -339 -338
-325 -405 -519 -908 -416 -1078 53 -86 150 -94 292 -23 112 56 203 125 328
251 252 252 466 586 565 880 36 108 39 123 39 237 1 108 -1 124 -20 149 -44
60 -94 77 -174 63z m-74 -214 c20 -30 13 -67 -27 -150 -55 -116 -174 -235
-235 -235 -31 0 -48 33 -39 79 18 94 143 268 224 311 48 25 58 25 77 -5z m74
-240 c18 -21 6 -93 -24 -153 -65 -128 -178 -236 -241 -230 -28 3 -30 6 -33 47
-6 84 95 245 202 323 43 31 77 36 96 13z m-455 -75 c16 -18 17 -26 6 -74 -21
-94 -116 -231 -199 -286 -52 -34 -73 -37 -97 -13 -52 52 97 311 214 373 46 24
54 24 76 0z m53 -257 c4 -31 -58 -99 -83 -90 -23 10 -12 53 23 90 30 32 56 32
60 0z m-237 -193 c57 -31 -9 -198 -124 -315 -102 -103 -167 -113 -167 -25 0
90 143 296 231 335 42 17 36 17 60 5z m254 -14 c20 -30 9 -80 -35 -166 -54
-105 -172 -220 -226 -220 -30 0 -48 33 -41 76 20 120 194 332 274 334 7 0 20
-11 28 -24z"/>
</g>
</svg>
